<?xml version="1.0" encoding="iso-8859-1"?>
<!-- Generator: Adobe Illustrator 19.0.0, SVG Export Plug-In . SVG Version: 6.00 Build 0)  -->
<svg version="1.1" id="Capa_1" xmlns="http://www.w3.org/2000/svg" xmlns:xlink="http://www.w3.org/1999/xlink" x="0px" y="0px"
	 viewBox="0 0 511.988 511.988" style="enable-background:new 0 0 511.988 511.988;" xml:space="preserve">
<g>
	<g>
		<path d="M502.042,169.126c-8.368-9.903-20.693-15.591-33.658-15.533H460.8v-2.983c-0.023-21.907-17.777-39.66-39.683-39.683H242.6
			c-8.831,0.032-17.045-4.524-21.692-12.033L198.3,62.718c-7.752-12.515-21.445-20.109-36.167-20.058H32.683
			C14.64,42.678,0.018,57.3,0,75.343v354.3c0.023,21.907,17.777,39.66,39.683,39.683H427.85
			c21.012,0.18,39.128-14.736,42.983-35.392l40.533-230.417C513.498,191.239,510.084,178.647,502.042,169.126z M17.067,75.343
			c0.012-8.62,6.997-15.605,15.617-15.617h129.45c8.831-0.032,17.045,4.524,21.692,12.033l22.608,36.175
			c7.752,12.515,21.445,20.109,36.167,20.058h178.517c12.486,0.011,22.605,10.131,22.617,22.617v2.983H84.083
			c-21.012-0.228-39.13,14.719-42.9,35.392L17.067,326.046V75.343z M494.55,200.585l-40.525,230.367
			c-2.409,12.507-13.44,21.486-26.175,21.308H39.683c-12.486-0.011-22.605-10.13-22.617-22.617v-2.9
			c0.002-1.478,0.133-2.953,0.392-4.408L58,191.926c2.351-12.497,13.368-21.48,26.083-21.266h384.3
			c7.926-0.052,15.469,3.408,20.6,9.45C493.775,185.776,495.814,193.272,494.55,200.585z" fill="grey"/>
	</g>
</g>
</svg>
